# xmcd CD database file
#
# Track frame offsets:
#	150
#	25225
#	67824
#	88851
#	107777
#	124963
#	169374
#	198739
#
# Disc length: 2950 seconds
#
# Revision: 2
# Processed by: cddbd v1.5.1PL2 Copyright (c) Steve Scherf et al.
# Submitted via: CDex 1.50
#
DISCID=710b8408
DTITLE=Michel Jonasz - Olympia 2000 - CD2
DYEAR=2000
DGENRE=Jazz
TTITLE0=La Bossa(Live)
TTITLE1=Groove Baby Groove(Live)
TTITLE2=Le Scat(Live)
TTITLE3=La Boîte De Jazz(Live)
TTITLE4=La Vie Sans Mort(Live)
TTITLE5=Joueurs De Blues(Live)
TTITLE6=Adam Et Eve(Live)
TTITLE7=C'est Ca Le Blues(Live)
EXTD=YEAR: 2000
EXTT0=
EXTT1=
EXTT2=
EXTT3=
EXTT4=
EXTT5=
EXTT6=
EXTT7=
PLAYORDER=
